<?xml version="1.0" encoding="UTF-8"?>
<svg version="1.1" xmlns="http://www.w3.org/2000/svg" width="582" height="366">
<path d="M0 0 C1.12148437 -0.02578125 2.24296875 -0.0515625 3.3984375 -0.078125 C7.03555317 0.29175117 8.76898945 0.99267207 11.625 3.25 C14.74243237 7.38964237 14.99174267 10.49068361 14.96557617 15.6105957 C14.96623329 16.69433723 14.96623329 16.69433723 14.96690369 17.79997253 C14.96482244 20.17552207 14.94152374 22.55035582 14.91796875 24.92578125 C14.91237041 26.57772944 14.90810144 28.22968262 14.90510559 29.88163757 C14.89367551 34.22020323 14.8642243 38.55846547 14.83099365 42.89691162 C14.80025306 47.32771704 14.78659174 51.7585717 14.77148438 56.18945312 C14.73935268 64.876441 14.68817876 73.56318271 14.625 82.25 C18.255 82.25 21.885 82.25 25.625 82.25 C25.60405273 81.26193359 25.58310547 80.27386719 25.56152344 79.25585938 C25.48862992 75.55841809 25.44302306 71.86103913 25.40527344 68.16308594 C25.38526947 66.56857592 25.35805699 64.97413822 25.32324219 63.37988281 C24.9700218 46.7785244 24.9700218 46.7785244 29.625 40.25 C31.40625 38.41015625 31.40625 38.41015625 33.125 37.3125 C33.6921875 36.93222656 34.259375 36.55195312 34.84375 36.16015625 C38.46887032 34.30784696 41.89124957 34.12440803 45.91781902 34.12136555 C46.99660216 34.1181411 48.0753853 34.11491665 49.18685883 34.1115945 C50.37137141 34.1131431 51.55588399 34.1146917 52.77629089 34.11628723 C54.03517618 34.11402167 55.29406147 34.11175612 56.59109479 34.10942191 C60.08777474 34.10329726 63.5844308 34.10343829 67.08111489 34.10461628 C70.85153519 34.10482013 74.62194778 34.09930301 78.3923645 34.09455872 C85.7809854 34.08624744 93.16959833 34.08350364 100.55822351 34.08294634 C106.56491762 34.08247131 112.5716091 34.08041719 118.57830238 34.07724571 C135.60837644 34.06843703 152.63844418 34.06382655 169.66852053 34.06457619 C171.0460538 34.06463612 171.0460538 34.06463612 172.45141602 34.06469727 C173.37089318 34.06473815 174.29037034 34.06477903 175.23771045 34.06482115 C190.13349715 34.06522745 205.02925856 34.0556625 219.92503794 34.0415589 C235.21992768 34.02719174 250.51480508 34.02028894 265.80970174 34.02115268 C274.39652881 34.02148458 282.98332938 34.01874058 291.57015038 34.00797462 C298.88278064 33.99886506 306.19537239 33.99669805 313.50800588 34.00348405 C317.23769137 34.00674724 320.96730298 34.00681326 324.69698143 33.9981308 C328.74430705 33.988806 332.79146191 33.99504727 336.83879089 34.00276184 C338.01214987 33.99761828 339.18550884 33.99247471 340.39442414 33.98717529 C349.5849693 34.02588622 357.25967595 35.57547603 365.86962891 38.76855469 C366.53269547 39.01280182 367.19576202 39.25704895 367.87892151 39.50869751 C370.03893011 40.30663058 372.19543406 41.11352079 374.3515625 41.921875 C375.86889046 42.48766718 377.38625563 43.05335959 378.90365601 43.61895752 C382.07060089 44.80140268 385.23554043 45.98905088 388.39941406 47.1796875 C392.43665277 48.69786267 396.4807863 50.19667927 400.5269413 51.6908989 C403.65871027 52.85109268 406.78534718 54.02465218 409.91074753 55.20188141 C411.39915767 55.76003553 412.88937698 56.31339151 414.38145828 56.86165619 C431.56251044 63.18779056 431.56251044 63.18779056 436.18081188 70.82171345 C437.8988367 74.90004737 438.04602804 78.4373379 438.01268005 82.78294373 C438.02075836 84.05116812 438.02075836 84.05116812 438.02899987 85.3450132 C438.04327809 88.17083179 438.03617606 90.99618186 438.02905273 93.82202148 C438.03475636 95.85093563 438.04172059 97.87984657 438.04985046 99.90875244 C438.06779756 105.41493614 438.06661056 110.92096062 438.06090808 116.42716479 C438.05781854 121.02467499 438.06390606 125.62215451 438.06994683 130.21966034 C438.08399549 141.06581839 438.08242784 151.91189767 438.07104492 162.75805664 C438.05956254 173.94619429 438.07364072 185.13409227 438.1004414 196.32219833 C438.12259454 205.93000967 438.12923666 215.53774576 438.12336498 225.14558083 C438.1199934 230.88302064 438.12242404 236.62030681 438.13961601 242.35772514 C438.15507685 247.7529091 438.15113893 253.14773783 438.13231087 258.54290771 C438.12862266 260.52180475 438.13174017 262.50072806 438.14219666 264.47960091 C438.15539232 267.18350113 438.14387182 269.8862229 438.12620544 272.59007263 C438.13581045 273.37101632 438.14541546 274.15196001 438.15531152 274.95656866 C438.08119027 280.47962493 436.75911499 283.68389719 433.625 288.25 C429.49340724 291.98810773 427.0987763 293.36671139 421.58957577 293.43056488 C420.51709211 293.44528981 419.44460846 293.46001473 418.3396253 293.47518587 C416.55767754 293.49200073 416.55767754 293.49200073 414.73973083 293.50915527 C413.48471474 293.52467674 412.22969865 293.5401982 410.93665177 293.55619001 C407.44027388 293.5990345 403.94385401 293.63538859 400.44739091 293.67049432 C397.45001724 293.70132398 394.45268858 293.73574326 391.45535278 293.77002954 C362.89220186 294.09532867 334.32781474 294.30967091 305.76348782 294.50046539 C302.03267182 294.52561969 298.30185765 294.55102654 294.57104492 294.57666016 C293.64387761 294.58301993 292.71671031 294.5893797 291.76144702 294.59593219 C276.8380203 294.6999214 261.91574085 294.86032841 246.99309551 295.04323286 C231.621494 295.23045954 216.25020003 295.35838404 200.87763554 295.4329648 C192.26758411 295.47631117 183.65944651 295.54504391 175.05032158 295.68132019 C107.64235469 296.72191039 107.64235469 296.72191039 75.58988094 281.12795067 C71.48061883 279.14294002 67.29211312 277.43260092 63.02920532 275.80715942 C62.07529808 275.43188952 62.07529808 275.43188952 61.10211998 275.04903841 C54.35218146 272.5240083 47.7972136 272.46341419 40.67578125 272.5859375 C39.32056564 272.58483893 37.9653493 272.58050455 36.6101532 272.57315063 C33.09869984 272.55994829 29.58829531 272.57827587 26.07696533 272.60760498 C20.42173236 272.65358511 14.76702844 272.66852719 9.11165428 272.64805984 C7.15234215 272.64843012 5.19309017 272.67482705 3.23396301 272.70175171 C2.04469711 272.70139923 0.85543121 272.70104675 -0.36987305 272.70068359 C-1.41193405 272.70989838 -2.45399506 272.71911316 -3.52763367 272.72860718 C-7.98517154 271.97935002 -10.40055039 269.46267206 -13.16259766 266.02539062 C-14.79003884 262.29990706 -14.80501777 258.83679555 -14.7734375 254.84375 C-14.77630768 254.04142944 -14.77917786 253.23910889 -14.78213501 252.41247559 C-14.78417038 250.72142834 -14.7786774 249.03035727 -14.76611328 247.33935547 C-14.75005135 244.75825102 -14.76597904 242.17871228 -14.78515625 239.59765625 C-14.78317372 237.95051739 -14.77932985 236.30337951 -14.7734375 234.65625 C-14.77951019 233.88841187 -14.78558289 233.12057373 -14.7918396 232.32946777 C-14.71348631 226.32855711 -13.24059597 223.22220146 -9.1875 218.9375 C-8.589375 218.380625 -7.99125 217.82375 -7.375 217.25 C-8.15875 216.6725 -8.9425 216.095 -9.75 215.5 C-13.53164046 212.25859389 -14.27716135 210.51466729 -14.66552734 205.49462891 C-14.69217326 203.98876643 -14.70658344 202.48265441 -14.7109375 200.9765625 C-14.7209227 199.77451675 -14.7209227 199.77451675 -14.73110962 198.54818726 C-14.74121876 196.85539031 -14.74592718 195.16255366 -14.74560547 193.46972656 C-14.74997358 190.89060188 -14.7862949 188.31319653 -14.82421875 185.734375 C-14.83008848 184.08594332 -14.83405683 182.43750356 -14.8359375 180.7890625 C-14.85030853 180.0232486 -14.86467957 179.25743469 -14.87948608 178.46841431 C-14.8278504 172.36433263 -12.82394128 168.87386566 -8.625 164.375 C-8.2125 164.00375 -7.8 163.6325 -7.375 163.25 C-8.15875 162.6725 -8.9425 162.095 -9.75 161.5 C-13.53164046 158.25859389 -14.27716135 156.51466729 -14.66552734 151.49462891 C-14.69217326 149.98876643 -14.70658344 148.48265441 -14.7109375 146.9765625 C-14.7209227 145.77451675 -14.7209227 145.77451675 -14.73110962 144.54818726 C-14.74121876 142.85539031 -14.74592718 141.16255366 -14.74560547 139.46972656 C-14.74997358 136.89060188 -14.7862949 134.31319653 -14.82421875 131.734375 C-14.83008848 130.08594332 -14.83405683 128.43750356 -14.8359375 126.7890625 C-14.85030853 126.0232486 -14.86467957 125.25743469 -14.87948608 124.46841431 C-14.83568438 119.29042148 -13.79423296 116.35447169 -10.375 112.25 C-8.89 111.26 -8.89 111.26 -7.375 110.25 C-8.11801361 109.7464801 -8.11801361 109.7464801 -8.8760376 109.23278809 C-12.64640992 105.97643377 -14.50468484 102.92265228 -15.03503418 97.97973633 C-15.36340173 92.45767469 -15.29583456 86.93515144 -15.234375 81.40625 C-15.23401092 79.35176503 -15.23602207 77.2972784 -15.24029541 75.24279785 C-15.24158745 70.94547369 -15.21869104 66.64917508 -15.17773438 62.35205078 C-15.12666133 56.85742578 -15.12886019 51.36441351 -15.14834213 45.86963654 C-15.15866318 41.62976183 -15.14418522 37.3902546 -15.12195587 33.1504364 C-15.11362011 31.12515396 -15.112085 29.09983125 -15.11760712 27.07453918 C-15.12090722 24.23834305 -15.09163551 21.40426594 -15.05371094 18.56835938 C-15.06069 17.74007126 -15.06766907 16.91178314 -15.07485962 16.05839539 C-14.9467729 10.16310361 -13.3636227 5.69869339 -9.375 1.25 C-6.07164934 0.14888311 -3.47667863 0.04773472 0 0 Z " fill="#000000" transform="translate(88.375,18.75)"/>
<path d="M0 0 C97.68 0 195.36 0 296 0 C296 44.88 296 89.76 296 136 C247.49 136 198.98 136 149 136 C149 129 149 129 150.14006805 127.02653027 C150.67839516 126.5076439 151.21672226 125.98875753 151.7713623 125.45414734 C152.38559555 124.84474304 152.9998288 124.23533875 153.63267517 123.60746765 C154.31527908 122.96574112 154.997883 122.32401459 155.70117188 121.6628418 C156.41318253 120.96587189 157.12519318 120.26890198 157.85877991 119.55081177 C159.40472807 118.04150596 160.95857727 116.54026024 162.51930237 115.04623985 C164.99016921 112.67869521 167.4370861 110.28866057 169.87878418 107.8910675 C176.82399476 101.08037237 183.81340641 94.31561352 190.81103516 87.55883789 C195.09190203 83.42216982 199.34803861 79.26129933 203.5907135 75.08548927 C205.2110061 73.50122431 206.84098252 71.92680017 208.48069763 70.3626461 C210.77650595 68.17260207 213.03985614 65.95327311 215.29882812 63.7253418 C215.98143204 63.08968796 216.66403595 62.45403412 217.36732483 61.79911804 C220.87903534 58.266651 222.43241819 55.85767177 222.615448 50.79466248 C222.32534109 46.84200659 221.7053863 44.44866838 218.85400391 41.56005859 C218.16553375 40.84006683 217.4770636 40.12007507 216.76773071 39.37826538 C215.63360245 38.27450058 215.63360245 38.27450058 214.4765625 37.1484375 C213.31355118 35.97107529 213.31355118 35.97107529 212.12704468 34.76992798 C210.48645422 33.12255406 208.83325216 31.48765553 207.16845703 29.86474609 C204.63200097 27.38185313 202.15334571 24.85010171 199.67578125 22.30859375 C198.07090469 20.71032566 196.46292861 19.11516264 194.8515625 17.5234375 C194.1157193 16.76735199 193.3798761 16.01126648 192.62173462 15.23226929 C188.93346511 11.70547409 186.12754016 9.50000636 180.93164062 9.10595703 C175.07462887 9.59898526 172.09371736 12.61240713 168.2421875 16.78125 C167.56825958 17.46932739 166.89433167 18.15740479 166.19998169 18.86633301 C164.06689936 21.05509926 161.97133651 23.27607295 159.875 25.5 C158.42943116 26.9957622 156.98153554 28.4892794 155.53125 29.98046875 C151.99337134 33.62820978 148.48871997 37.30524078 145 41 C142.09878499 39.69533157 140.11873009 38.3389849 137.95068359 36.01904297 C137.38264008 35.41857147 136.81459656 34.81809998 136.2293396 34.19943237 C135.62514191 33.55354156 135.02094421 32.90765076 134.3984375 32.2421875 C133.09108918 30.88031376 131.78245412 29.51967428 130.47265625 28.16015625 C128.41958759 26.0207046 126.37524875 23.87526652 124.35205078 21.70751953 C122.39057656 19.61225413 120.3982392 17.55081704 118.3984375 15.4921875 C117.51035904 14.51727859 117.51035904 14.51727859 116.6043396 13.52267456 C113.32694135 10.20501385 110.81062515 8.52100255 106.09082031 8.12402344 C99.77523787 8.58177198 96.39886255 12.15608751 92.1484375 16.5234375 C90.97107529 17.68644882 90.97107529 17.68644882 89.76992798 18.87295532 C88.12255406 20.51354578 86.48765553 22.16674784 84.86474609 23.83154297 C82.38185313 26.36799903 79.85010171 28.84665429 77.30859375 31.32421875 C75.71032566 32.92909531 74.11516264 34.53707139 72.5234375 36.1484375 C71.76735199 36.8842807 71.01126648 37.6201239 70.23226929 38.37826538 C66.87263944 41.89171589 64.46400376 44.87980533 63.83251953 49.79711914 C64.48193333 57.3539012 70.97686751 62.17653513 76.15625 67.09765625 C77.30192705 68.22211862 78.44532915 69.34890313 79.58654785 70.47789001 C82.58351269 73.43118694 85.60883187 76.35362471 88.6416626 79.27001953 C91.73476784 82.25350936 94.80245143 85.26287161 97.87109375 88.27148438 C101.3132179 91.64614347 104.7572787 95.01828618 108.22424316 98.3674469 C108.74786942 98.8746376 109.27149567 99.38182831 109.81098938 99.90438843 C111.22689604 101.27498871 112.64528468 102.64302363 114.06384277 104.01087952 C116 106 116 106 116 107 C77.72 107 39.44 107 0 107 C0 71.69 0 36.38 0 0 Z " fill="#FEFEFE" transform="translate(210,157)"/>
<path d="M0 0 C2.19036865 1.55145264 2.19036865 1.55145264 4 4 C4.3743979 6.6792182 4.50787519 8.94082734 4.45410156 11.61425781 C4.45468567 12.37562042 4.45526978 13.13698303 4.45587158 13.92141724 C4.45308973 16.43245386 4.42199452 18.94229634 4.390625 21.453125 C4.38316293 23.19618074 4.37746984 24.93924488 4.37347412 26.68231201 C4.35821501 31.26594276 4.31893099 35.84906502 4.2746582 40.43249512 C4.23371138 45.11117677 4.21546437 49.78994074 4.1953125 54.46875 C4.15243686 63.64605652 4.08418228 72.82298594 4 82 C4.91375397 81.99777939 5.82750793 81.99555878 6.76895142 81.99327087 C15.39074179 81.97321303 24.01252429 81.95799784 32.63433266 81.94818783 C37.06661603 81.94297483 41.49888009 81.93590595 45.93115234 81.92456055 C50.21052617 81.91367538 54.48988143 81.90771123 58.76926804 81.90512276 C60.39988878 81.90327865 62.03050854 81.8996776 63.66112137 81.89426994 C65.94939601 81.88698478 68.23759449 81.88601221 70.52587891 81.88647461 C71.82715729 81.884254 73.12843567 81.88203339 74.46914673 81.87974548 C77.75977843 81.99181849 80.78985079 82.27304807 84 83 C86.74129165 86.22983867 86.30615675 90.39047732 86.30078125 94.43359375 C86.30506638 95.14854507 86.3093515 95.8634964 86.31376648 96.60011292 C86.31949654 98.10880476 86.3200198 99.61752423 86.31567383 101.1262207 C86.31251521 103.42642661 86.33598258 105.72534371 86.36132812 108.02539062 C86.36360151 109.49479005 86.36430443 110.96419292 86.36328125 112.43359375 C86.372491 113.11707382 86.38170074 113.80055389 86.39118958 114.50474548 C86.34954981 118.83262224 85.6423568 121.55402531 83 125 C80.01756445 126.49121778 76.97384248 126.13001472 73.70458984 126.11352539 C72.57761436 126.11374443 72.57761436 126.11374443 71.4278717 126.1139679 C68.9388645 126.11326996 66.44993167 126.10548314 63.9609375 126.09765625 C62.23743735 126.09579165 60.51393666 126.09436794 58.79043579 126.09336853 C54.24974103 126.08954669 49.70907815 126.07971922 45.168396 126.06866455 C40.53674755 126.05844329 35.90509397 126.05386937 31.2734375 126.04882812 C22.18227764 126.03809667 13.09114147 126.02102422 4 126 C4 129.3 4 132.6 4 136 C5.45579216 135.99000725 5.45579216 135.99000725 6.94099426 135.97981262 C16.07874941 135.91904811 25.21646368 135.87404983 34.35437489 135.84456348 C39.05249756 135.82889472 43.75045739 135.80763445 48.44848633 135.77368164 C52.98073112 135.74113123 57.51281909 135.72315611 62.04517174 135.71536827 C63.77598223 135.70981698 65.50678396 135.69897687 67.23752785 135.68280983 C69.65829776 135.66109263 72.07841623 135.65803063 74.49926758 135.65942383 C75.21783936 135.648638 75.93641113 135.63785217 76.67675781 135.6267395 C81.53179224 135.6570564 81.53179224 135.6570564 83.90629578 137.39628601 C86.37819806 141.02087133 86.16143456 144.27636631 86.16796875 148.52734375 C86.17296135 149.64442467 86.17296135 149.64442467 86.17805481 150.78407288 C86.18312026 152.36019269 86.18546325 153.93632323 86.18530273 155.51245117 C86.18748822 157.9244961 86.20564468 160.33608297 86.22460938 162.74804688 C86.22754357 164.27864427 86.22952819 165.80924383 86.23046875 167.33984375 C86.23765427 168.06179428 86.24483978 168.78374481 86.25224304 169.52757263 C86.23528628 173.24243462 86.11674496 174.82488256 84 178 C80.46029903 179.17990032 77.27272521 179.13218895 73.59106445 179.11352539 C72.83960144 179.11367142 72.08813843 179.11381744 71.31390381 179.1139679 C68.83033358 179.11327129 66.34683837 179.10549067 63.86328125 179.09765625 C62.14121034 179.09579118 60.41913889 179.09436769 58.69706726 179.09336853 C54.16460709 179.0895504 49.63217896 179.07972611 45.09973145 179.06866455 C40.47469516 179.05843531 35.84965371 179.05386766 31.22460938 179.04882812 C22.1497255 179.03810323 13.07486542 179.02103523 4 179 C4 182.63 4 186.26 4 190 C4.9683075 189.99111755 5.93661499 189.98223511 6.93426514 189.9730835 C16.05696254 189.89201796 25.17958693 189.83204444 34.30256271 189.79275131 C38.99287673 189.77187114 43.68290013 189.74354578 48.37304688 189.69824219 C52.89882516 189.65479956 57.42432381 189.63086613 61.95029449 189.62049103 C63.67750705 189.61309679 65.4047042 189.59865755 67.13179779 189.57707977 C69.55011639 189.54806606 71.96727771 189.54404303 74.38574219 189.54589844 C75.10071869 189.53151733 75.81569519 189.51713623 76.55233765 189.50231934 C79.90693395 189.53019135 81.71305976 189.78825838 84.44354248 191.80316162 C86.71853609 195.01416687 86.57318674 198.11295683 86.53125 201.90625 C86.53699036 203.04882263 86.53699036 203.04882263 86.54284668 204.21447754 C86.54556313 205.82154668 86.53822044 207.42866024 86.52148438 209.03564453 C86.50006786 211.49221587 86.52129178 213.94586311 86.546875 216.40234375 C86.54423167 217.96615227 86.53910658 219.52995898 86.53125 221.09375 C86.53934692 221.82613892 86.54744385 222.55852783 86.55578613 223.31311035 C86.49750133 226.49121515 86.30251296 228.57302266 84.44354248 231.19683838 C81.14781861 233.62884963 78.32315517 233.53329905 74.38574219 233.45410156 C73.24369827 233.45497772 73.24369827 233.45497772 72.07858276 233.45587158 C69.56754614 233.45308973 67.05770366 233.42199452 64.546875 233.390625 C62.80381926 233.38316293 61.06075512 233.37746984 59.31768799 233.37347412 C54.73405724 233.35821501 50.15093498 233.31893099 45.56750488 233.2746582 C40.88882323 233.23371138 36.21005926 233.21546437 31.53125 233.1953125 C22.35394348 233.15243686 13.17701406 233.08418228 4 233 C4 236.63 4 240.26 4 244 C35.35 244 66.7 244 99 244 C99 248.95 99 253.9 99 259 C84.95312194 259.06938944 70.90628438 259.12275495 56.8592701 259.15543652 C50.337271 259.17111888 43.81538882 259.19240407 37.29345703 259.22631836 C31.00409668 259.25882007 24.71484905 259.27683363 18.42541122 259.28463173 C16.02112934 259.29019178 13.61685391 259.30104856 11.21261978 259.31719017 C7.85531335 259.3388421 4.49847784 259.34197204 1.14111328 259.34057617 C-0.36292053 259.35675491 -0.36292053 259.35675491 -1.89733887 259.3732605 C-2.80881683 259.36913651 -3.7202948 259.36501251 -4.65939331 259.36076355 C-5.45397886 259.36352893 -6.24856441 259.36629431 -7.06722832 259.36914349 C-7.70504297 259.24732614 -8.34285763 259.12550879 -9 259 C-11.45387899 255.31918152 -11.34008506 252.45613514 -11.37109375 248.19140625 C-11.38012222 247.42827621 -11.3891507 246.66514618 -11.39845276 245.87889099 C-11.41295024 244.26589885 -11.42184076 242.65284797 -11.42553711 241.03979492 C-11.43744278 238.57434999 -11.48663409 236.11140167 -11.53710938 233.64648438 C-11.546573 232.0781372 -11.55380833 230.50977467 -11.55859375 228.94140625 C-11.57812607 228.20588028 -11.59765839 227.47035431 -11.61778259 226.71253967 C-11.5867268 223.1830116 -11.38778121 221.41253558 -8.93405151 218.8021698 C-5.34991797 216.60070292 -2.53194663 216.46127154 1.54418945 216.54589844 C2.6571917 216.54502228 2.6571917 216.54502228 3.79267883 216.54412842 C6.23336364 216.54690436 8.67281111 216.57797114 11.11328125 216.609375 C12.81006707 216.61683918 14.50686153 216.62253128 16.20365906 216.62652588 C20.66069511 216.64176838 25.11720636 216.68103793 29.57403564 216.7253418 C34.12545676 216.76632457 38.67696302 216.78454329 43.22851562 216.8046875 C52.15257381 216.84753379 61.07624319 216.91576812 70 217 C70 213.37 70 209.74 70 206 C69.05896927 206.00888245 68.11793854 206.01776489 67.14839172 206.0269165 C58.27618242 206.10803482 49.40404844 206.1679809 40.53155231 206.20724869 C35.97017767 206.2281155 31.40910262 206.25641641 26.84790039 206.30175781 C22.44530992 206.34524818 18.04300745 206.36914393 13.64021873 206.37950897 C11.96127985 206.38689464 10.28235656 206.4013173 8.60354042 206.42292023 C6.25007811 206.45199756 3.89780275 206.45595434 1.54418945 206.45410156 C0.8515097 206.46848267 0.15882996 206.48286377 -0.55484009 206.49768066 C-4.02936867 206.46812196 -5.9476997 206.03213505 -8.93305969 204.1978302 C-11.87770885 201.06670986 -11.68470665 198.13910007 -11.59375 194.05859375 C-11.59379028 193.29450699 -11.59383057 192.53042023 -11.59387207 191.74317932 C-11.58852184 190.13184357 -11.57095984 188.52050806 -11.54199219 186.90942383 C-11.50007749 184.44206156 -11.50092853 181.97742441 -11.5078125 179.50976562 C-11.49732148 177.94268936 -11.48438383 176.37562715 -11.46875 174.80859375 C-11.46854858 174.07104355 -11.46834717 173.33349335 -11.46813965 172.57359314 C-11.35223819 167.56521978 -11.35223819 167.56521978 -9.94255066 165.30316162 C-6.97105315 163.30973021 -3.95426904 163.60756394 -0.49926758 163.65942383 C0.6425573 163.65876671 0.6425573 163.65876671 1.80744934 163.65809631 C4.32371666 163.66018647 6.83931782 163.68352765 9.35546875 163.70703125 C11.09995662 163.71262641 12.84444921 163.71689689 14.58894348 163.71989441 C19.18070487 163.73134951 23.77218164 163.76082235 28.36383057 163.79400635 C33.04915517 163.82469293 37.73452575 163.83839672 42.41992188 163.85351562 C51.61340631 163.88569146 60.80667949 163.93689582 70 164 C70 160.04 70 156.08 70 152 C68.5884539 152.00999275 68.5884539 152.00999275 67.14839172 152.02018738 C58.27615158 152.08102632 49.4039538 152.12598599 40.53155231 152.15543652 C35.9702465 152.17108639 31.40910922 152.19231226 26.84790039 152.22631836 C22.44532301 152.25893603 18.04290763 152.27685812 13.64021873 152.28463173 C11.96130002 152.29017092 10.28239009 152.30098765 8.60354042 152.31719017 C6.25022915 152.33899677 3.89758565 152.34196562 1.54418945 152.34057617 C0.8515097 152.351362 0.15882996 152.36214783 -0.55484009 152.3732605 C-4.84096488 152.34591312 -7.66842203 151.76390136 -11 149 C-11.45411351 146.01027293 -11.58521264 143.59504217 -11.48828125 140.61328125 C-11.48120651 139.79627243 -11.47413177 138.97926361 -11.46684265 138.13749695 C-11.43885512 135.52823263 -11.37611306 132.9211154 -11.3125 130.3125 C-11.28742256 128.54365079 -11.26460842 126.77476793 -11.24414062 125.00585938 C-11.18901471 120.66974576 -11.10271575 116.33523685 -11 112 C-7.30491494 109.61894409 -3.72449529 109.72967138 0.52246094 109.77294922 C1.6498745 109.77251114 1.6498745 109.77251114 2.80006409 109.77206421 C5.27828616 109.77345481 7.7562056 109.78900316 10.234375 109.8046875 C11.95501542 109.80841859 13.67565797 109.81126511 15.39630127 109.81326294 C19.92057176 109.82089182 24.44471344 109.84053392 28.96893311 109.8626709 C33.58734393 109.88314536 38.2057756 109.89226808 42.82421875 109.90234375 C51.88286903 109.92378051 60.9414238 109.95790749 70 110 C70 106.04 70 102.08 70 98 C68.54420784 98.00999275 68.54420784 98.00999275 67.05900574 98.02018738 C57.92125059 98.08095189 48.78353632 98.12595017 39.64562511 98.15543652 C34.94750244 98.17110528 30.24954261 98.19236555 25.55151367 98.22631836 C21.01926888 98.25886877 16.48718091 98.27684389 11.95482826 98.28463173 C10.22401777 98.29018302 8.49321604 98.30102313 6.76247215 98.31719017 C4.34170224 98.33890737 1.92158377 98.34196937 -0.49926758 98.34057617 C-1.21783936 98.351362 -1.93641113 98.36214783 -2.67675781 98.3732605 C-7.55017234 98.34282883 -7.55017234 98.34282883 -9.68339157 96.71703053 C-11.99770279 93.69886437 -11.42353564 89.91783574 -11.40405273 86.26171875 C-11.41091599 85.36877106 -11.41777924 84.47582336 -11.42485046 83.55581665 C-11.44317554 80.59955008 -11.43927319 77.64381126 -11.43359375 74.6875 C-11.4381525 72.63631008 -11.44345715 70.58512169 -11.44947815 68.53393555 C-11.45842025 64.23317259 -11.45597324 59.93259521 -11.44604492 55.63183594 C-11.43454835 50.11327924 -11.45477189 44.59536174 -11.48396206 39.07688904 C-11.50228357 34.84073806 -11.50203979 30.60474143 -11.49632454 26.36856079 C-11.49617086 24.33353783 -11.50225367 22.29850471 -11.51461601 20.26351929 C-11.52944945 17.42136185 -11.51890588 14.58040055 -11.50170898 11.73828125 C-11.51137695 10.89351227 -11.52104492 10.04874329 -11.53100586 9.17837524 C-11.45899085 3.51120308 -11.45899085 3.51120308 -9.18739319 0.98120117 C-5.93100221 -0.47952142 -3.52015257 -0.44001907 0 0 Z " fill="#AD1010" transform="translate(92,25)"/>
<path d="M0 0 C97.68 0 195.36 0 296 0 C296 12.54 296 25.08 296 38 C198.32 38 100.64 38 0 38 C0 25.46 0 12.92 0 0 Z " fill="#FEFEFE" transform="translate(210,100)"/>
<path d="M0 0 C4.09366808 1.61833292 6.65952519 4.44165959 9.72927856 7.5352478 C10.41436493 8.2101123 11.09945129 8.88497681 11.80529785 9.58029175 C14.06595236 11.8131534 16.31144709 14.06056162 18.55593872 16.30966187 C20.12016427 17.86611532 21.6848372 19.42211928 23.24993896 20.97769165 C26.52660567 24.23943502 29.79541174 27.50882299 33.05935669 30.78329468 C37.24935449 34.98490025 41.46167837 39.16329953 45.68059349 43.33584213 C48.91657485 46.5424115 52.13865086 49.76267247 55.3568306 52.98709869 C56.90475414 54.53399325 58.45743059 56.07614646 60.01484299 57.61348724 C62.18684679 59.76090876 64.33901807 61.92642483 66.48709106 64.0977478 C67.46252869 65.05025421 67.46252869 65.05025421 68.45767212 66.02200317 C72.70037504 70.36725654 72.70037504 70.36725654 72.79528809 73.7913208 C71.67218889 76.17684278 70.59408704 77.71965914 68.74832153 79.59628296 C67.81164642 80.56155411 67.81164642 80.56155411 66.85604858 81.54632568 C66.1769342 82.22361725 65.49781982 82.90090881 64.79812622 83.59872437 C64.1011261 84.30429474 63.40412598 85.00986511 62.68600464 85.73681641 C61.2115625 87.22273032 59.7318694 88.70344965 58.24734497 90.17929077 C55.97456818 92.44573264 53.72975246 94.73754661 51.48562622 97.03231812 C50.0497491 98.47273978 48.61230074 99.91159724 47.17312622 101.34872437 C46.50210876 102.03816132 45.83109131 102.72759827 45.13973999 103.43792725 C44.50268127 104.06252838 43.86562256 104.68712952 43.20925903 105.33065796 C42.65490173 105.88627411 42.10054443 106.44189026 41.52938843 107.01434326 C39.72000122 108.07528687 39.72000122 108.07528687 37.44000244 108.15057373 C33.34633436 106.53224081 30.78047725 103.70891414 27.71072388 100.61532593 C27.02563751 99.94046143 26.34055115 99.26559692 25.63470459 98.57028198 C23.37405008 96.33742033 21.12855535 94.09001211 18.88406372 91.84091187 C17.31983817 90.28445841 15.75516524 88.72845445 14.19006348 87.17288208 C10.91339678 83.91113871 7.6445907 80.64175074 4.38064575 77.36727905 C0.19064795 73.16567348 -4.02167593 68.9872742 -8.24059105 64.8147316 C-11.47657241 61.60816223 -14.69864841 58.38790126 -17.91682816 55.16347504 C-19.46475169 53.61658048 -21.01742815 52.07442727 -22.57484055 50.53708649 C-24.74684435 48.38966497 -26.89901562 46.2241489 -29.04708862 44.05282593 C-29.69738037 43.41782166 -30.34767212 42.78281738 -31.01766968 42.12857056 C-35.26037259 37.78331719 -35.26037259 37.78331719 -35.35528564 34.35925293 C-34.23218645 31.97373095 -33.1540846 30.43091459 -31.30831909 28.55429077 C-30.68386902 27.91077667 -30.05941895 27.26726257 -29.41604614 26.60424805 C-28.73693176 25.92695648 -28.05781738 25.24966492 -27.35812378 24.55184937 C-26.66112366 23.84627899 -25.96412354 23.14070862 -25.2460022 22.41375732 C-23.77156006 20.92784341 -22.29186696 19.44712408 -20.80734253 17.97128296 C-18.53456573 15.70484109 -16.28975002 13.41302712 -14.04562378 11.11825562 C-12.60974666 9.67783395 -11.1722983 8.23897649 -9.73312378 6.80184937 C-8.7265976 5.76769394 -8.7265976 5.76769394 -7.69973755 4.71264648 C-6.74414948 3.77574478 -6.74414948 3.77574478 -5.76925659 2.81991577 C-5.21489929 2.26429962 -4.66054199 1.70868347 -4.08938599 1.13623047 C-2.27999878 0.07528687 -2.27999878 0.07528687 0 0 Z " fill="#AC0F0F" transform="translate(316.2799987792969,171.92471313476563)"/>
<path d="M0 0 C2.76584989 0.87692236 4.02220295 1.76316866 6.07383728 3.78106689 C6.71735138 4.40551697 7.36086548 5.02996704 8.02388 5.67333984 C9.03981735 6.69201141 9.03981735 6.69201141 10.07627869 7.73126221 C10.78184906 8.42826233 11.48741943 9.12526245 12.21437073 9.84338379 C13.70028464 11.31782593 15.18100397 12.79751903 16.65684509 14.28204346 C18.92328696 16.55482025 21.21510093 18.79963597 23.50987244 21.04376221 C24.9502941 22.47963933 26.38915156 23.91708768 27.82627869 25.35626221 C28.86043411 26.36278839 28.86043411 26.36278839 29.91548157 27.38964844 C34.45198368 32.01663044 34.45198368 32.01663044 34.87583923 35.34820557 C32.87959875 39.06182438 30.12596254 41.72580613 27.11143494 44.64141846 C26.46916458 45.27802902 25.82689423 45.91463959 25.16516113 46.57054138 C23.11609933 48.59725244 21.05355719 50.60959702 18.99034119 52.62188721 C17.59685074 53.99531113 16.2042614 55.36964997 14.81260681 56.74493408 C11.40304177 60.1104489 7.98132123 63.46314767 4.55284119 66.80938721 C-0.43308756 62.63160956 -5.11420166 58.27811444 -9.69325256 53.66094971 C-10.34922928 53.00355804 -11.00520599 52.34616638 -11.68106079 51.66885376 C-13.75131149 49.59305859 -15.81803532 47.51379294 -17.88465881 45.43438721 C-19.29783743 44.0161864 -20.71124675 42.59821544 -22.12489319 41.18048096 C-25.56831946 37.72609944 -29.00858981 34.26860351 -32.44715881 30.80938721 C-27.21769318 24.60353967 -21.70889306 18.75117416 -16.01527405 12.97247314 C-14.92014249 11.85553406 -13.83133365 10.73236345 -12.74867249 9.60333252 C-11.17148741 7.9595125 -9.57572186 6.3360123 -7.97450256 4.71563721 C-7.49416061 4.2074646 -7.01381866 3.69929199 -6.5189209 3.17572021 C-3.08241349 -0.24009371 -3.08241349 -0.24009371 0 0 Z " fill="#AD1010" transform="translate(391.44715881347656,173.19061279296875)"/>
<path d="M0 0 C31.90724378 -0.13718436 63.81440288 -0.24321664 95.72187312 -0.30639198 C99.49776942 -0.31389528 103.27366512 -0.3216613 107.04956055 -0.32958984 C108.17702301 -0.33195064 108.17702301 -0.33195064 109.32726248 -0.33435912 C121.46188811 -0.36039281 133.59634137 -0.40765879 145.7308651 -0.46291678 C158.20289295 -0.51923358 170.67483118 -0.55239631 183.14698094 -0.56453097 C190.82911105 -0.57272098 198.51075377 -0.59848749 206.19273367 -0.6474988 C212.10566299 -0.68327779 218.01834877 -0.68667922 223.93138885 -0.67864609 C226.3406618 -0.68028379 228.74995485 -0.69204386 231.15911674 -0.71523285 C245.85559097 -0.84963796 258.30382605 0.50145124 272 6 C272.99466435 6.39357508 273.98932871 6.78715015 275.01413441 7.19265175 C275.66947005 7.45907667 276.3248057 7.72550159 277 8 C277 8.33 277 8.66 277 9 C244.88906964 9.18300716 212.77828934 9.324337 180.66695832 9.40852264 C176.86488542 9.41852675 173.06281355 9.42888148 169.26074219 9.43945312 C168.50390625 9.44155161 167.74707031 9.44365009 166.96729995 9.44581217 C154.75703226 9.48050126 142.54706984 9.54350953 130.33698247 9.61722237 C117.78245754 9.69237521 105.22809106 9.7365416 92.67335045 9.75270796 C84.94346547 9.76361516 77.2144437 9.79789705 69.48482485 9.86333174 C63.53005141 9.91113415 57.57570658 9.9155568 51.62073708 9.90486145 C49.19818796 9.90704057 46.77560245 9.92265915 44.3532505 9.9536438 C28.03319932 10.15194207 14.94255899 7.68856573 0 1 C0 0.67 0 0.34 0 0 Z " fill="#FDFDFD" transform="translate(180,72)"/>
<path d="M0 0 C16.1861982 -0.32518397 32.37103317 -0.57446876 48.55970955 -0.72537041 C56.07788958 -0.79732522 63.59399345 -0.89526741 71.11083984 -1.05615234 C77.6687778 -1.19644566 84.22521172 -1.286186 90.78460872 -1.31723893 C94.2533333 -1.33537344 97.71775871 -1.37742765 101.18509293 -1.48022079 C125.04969229 -2.16132962 125.04969229 -2.16132962 132.96465874 5.05570793 C140 12.56349949 140 12.56349949 140 15 C93.8 15 47.6 15 0 15 C0 10.05 0 5.1 0 0 Z " fill="#AD1010" transform="translate(208,271)"/>
<path d="M0 0 C3.06069941 0.76517485 5.83714155 1.61967923 8.78125 2.70703125 C9.69986816 3.04436279 10.61848633 3.38169434 11.56494141 3.72924805 C12.53351074 4.08672119 13.50208008 4.44419434 14.5 4.8125 C20.516608 7.02125801 26.52442231 9.21904693 32.625 11.1875 C38.56092663 13.12331446 44.27090219 15.52695237 50 18 C52.31 18.99 54.62 19.98 57 21 C57 33.21 57 45.42 57 58 C52 57 52 57 50 56 C49.505 43.625 49.505 43.625 49 31 C42.39989889 27.69994945 37.14717294 26.68800678 29.8828125 26.5859375 C29.02565643 26.56657135 28.16850037 26.5472052 27.28536987 26.5272522 C24.56534572 26.46778744 21.84527848 26.42120431 19.125 26.375 C17.27341972 26.3367897 15.42185663 26.29773622 13.5703125 26.2578125 C9.04696783 26.16053627 4.5237917 26.08070614 0 26 C0 17.42 0 8.84 0 0 Z " fill="#FAFAFA" transform="translate(134,75)"/>
<path d="M0 0 C5.75 1.875 5.75 1.875 8 3 C8 38.97 8 74.94 8 112 C4.37 112 0.74 112 -3 112 C-2.51249268 111.1944165 -2.02498535 110.38883301 -1.52270508 109.55883789 C0.34946781 105.18323036 0.41691795 101.75513325 0.36328125 97.05859375 C0.36377975 96.21329605 0.36427826 95.36799835 0.36479187 94.49708557 C0.36246061 92.71784096 0.35278829 90.93859247 0.33618164 89.15942383 C0.31254411 86.44257012 0.31563357 83.72669642 0.32226562 81.00976562 C0.31668951 79.27603584 0.30958006 77.54231017 0.30078125 75.80859375 C0.30169266 75.00014511 0.30260406 74.19169647 0.30354309 73.35874939 C0.2512658 69.18476791 0.10289619 65.73016397 -2 62 C-4.52372901 60.63921965 -4.52372901 60.63921965 -7 60 C-5.6875 58.5 -5.6875 58.5 -4 57 C-3.01 57 -2.02 57 -1 57 C-0.16712356 54.0950524 0.12219788 51.52486082 0.11352539 48.50683594 C0.11344986 47.62622498 0.11337433 46.74561401 0.11329651 45.83831787 C0.10813522 44.89651672 0.10297394 43.95471558 0.09765625 42.984375 C0.09553383 41.52792572 0.09553383 41.52792572 0.09336853 40.04205322 C0.08777663 36.94467065 0.07522559 33.84736068 0.0625 30.75 C0.05748395 28.64843854 0.05292123 26.54687596 0.04882812 24.4453125 C0.03780985 19.29684708 0.02055074 14.14843584 0 9 C-2.31 8.34 -4.62 7.68 -7 7 C-5.37660195 5.29115995 -3.70680947 3.62553283 -2 2 C-1.34 2 -0.68 2 0 2 C0 1.34 0 0.68 0 0 Z " fill="#F8F8F8" transform="translate(183,150)"/>
<path d="M0 0 C3.91402949 1.26941497 5.79072873 2.51167694 8 6 C7.67 6.66 7.34 7.32 7 8 C5.83035398 6.8572081 4.66435444 5.71068285 3.5 4.5625 C2.8503125 3.92441406 2.200625 3.28632813 1.53125 2.62890625 C0 1 0 1 0 0 Z " fill="#0F0F0F" transform="translate(300,237)"/>
</svg>
